# xmcd
# 
# Track frame offsets:
#     150
#     11827
#     33452
# 
# Disc length: 731
# 
# Revision: 0
# Processed by: cddbd v1.5.2PL0 Copyright (c) Steve Scherf et al.
# Submitted via: fre:ac v1.0.17
# 
DISCID=1d02d903
DTITLE=JUJU - Lullaby of Birdland
DYEAR=0
DGENRE=
TTITLE0=Lullaby of Birdland
TTITLE1=みずいろの影
TTITLE2=みずいろの影 -Instrumental-
EXTD=
EXTT0=
EXTT1=
EXTT2=
PLAYORDER=
